<?xml version="1.0" encoding="utf-8"?>
<!-- Generator: Adobe Illustrator 16.0.0, SVG Export Plug-In . SVG Version: 6.00 Build 0)  -->
<!DOCTYPE svg PUBLIC "-//W3C//DTD SVG 1.1//EN" "http://www.w3.org/Graphics/SVG/1.1/DTD/svg11.dtd">
<svg version="1.1" id="Calque_1" xmlns="http://www.w3.org/2000/svg" xmlns:xlink="http://www.w3.org/1999/xlink" x="0px" y="0px"
	 width="498.544px" height="180.549px" viewBox="0 0 498.544 180.549" enable-background="new 0 0 498.544 180.549"
	 xml:space="preserve">
<g>
	<path d="M13.619,170.549c-3.327,0-4.587-1.729-3.782-5.19L36.784,48.542c0.807-3.461,2.912-5.191,6.32-5.191h13.681
		c3.002,0,4.022,1.73,3.06,5.191l-1.659,6.75h0.346c4.268-4.961,8.093-8.48,11.473-10.557c3.38-2.077,7.233-3.115,11.562-3.115
		c11.548,0,19.728,3.75,24.539,11.249c4.812,7.5,7.219,15.833,7.219,25.005c0,15.174-4.641,28.645-13.923,40.412
		c-9.282,11.768-20.053,17.652-32.314,17.652c-4.292,0-8.763-0.551-13.413-1.646c-4.649-1.093-8.464-3.891-11.444-8.391h-0.347
		c-0.292,2.423-0.696,4.729-1.217,6.922l-7.528,32.535c-0.812,3.461-2.882,5.191-6.209,5.191L13.619,170.549L13.619,170.549z
		 M47.702,102.19c0,5.539,1.002,9.721,3.009,12.545c2.006,2.826,6.003,4.242,11.992,4.242c7.897,0,14.039-4.384,18.427-13.151
		c4.387-8.769,6.582-18.633,6.582-29.593c0-6-1.15-10.441-3.447-13.326c-2.297-2.884-5.474-4.327-9.532-4.327
		c-4.125,0-8.562,2.565-13.308,7.699c-4.745,5.137-8.268,12.549-10.566,22.241L47.702,102.19z"/>
	<path d="M113.832,134.207c-3.461,0-4.79-1.731-3.98-5.192l25.458-113.7c0.575-2.596,2.94-5.192,6.052-5.192h14.897
		c3.482,0,4.848,1.73,4.098,5.192l-26.278,113.7c-0.81,3.461-2.944,5.192-6.405,5.192H113.832z"/>
	<path d="M148.867,101.409c0-16.21,5.287-30.228,15.863-42.053c10.574-11.823,22.38-17.736,35.417-17.736
		c2.688,0,5.797,0.661,9.326,1.988c3.525,1.33,6.724,4.012,9.594,8.05h0.156l0.666-3.115c0.729-3.461,2.289-5.191,4.683-5.191
		h14.076c3.742,0,5.21,1.73,4.404,5.191l-18.56,80.474c-0.806,3.461-2.939,5.191-6.4,5.191h-13.239c-3.232,0-4.365-1.73-3.402-5.191
		l1.66-6.75h-0.346c-3.502,4.153-7.212,7.471-11.131,9.948c-3.917,2.479-8.398,3.724-13.442,3.724
		c-9.25,0-16.451-3.492-21.601-10.473C151.442,118.487,148.867,110.466,148.867,101.409z M174.48,103.056
		c0,4.961,1.148,8.855,3.444,11.68c2.296,2.826,4.874,4.242,7.735,4.242c5.074,0,9.864-2.496,14.378-7.485
		c4.513-4.99,7.978-12.474,10.396-22.453l3.157-13.671c0-5.25-0.987-9.361-2.958-12.332c-1.972-2.971-5.527-4.455-10.666-4.455
		c-7.266,0-13.331,4.558-18.193,13.672C176.911,81.366,174.48,91.634,174.48,103.056z"/>
	<path d="M236.952,95.698l10.876-47.156c0.807-3.461,2.911-5.191,6.314-5.191h13.841c3.52,0,4.877,1.73,4.076,5.191l-9.625,41.708
		c-2.712,11.71-3.361,19.293-1.949,22.755c1.414,3.461,4.41,5.192,8.988,5.192c5.781,0,11.022-3.445,15.719-10.339
		c4.697-6.894,8.42-16.428,11.168-28.6l7.068-30.716c0.813-3.461,2.932-5.191,6.356-5.191h13.923c3.54,0,4.909,1.73,4.109,5.191
		l-19.56,84.71c-3.067,13.21-8.696,22.729-16.886,28.555c-8.193,5.826-19.844,8.742-34.953,8.742c-3.637,0-7.838-0.304-12.6-0.91
		c-4.762-0.604-9.395-2.121-13.897-4.543c-3.059-1.615-3.519-4.123-1.384-7.525l4.245-6.75c1.56-2.541,3.671-3.115,6.33-1.73
		c3.923,2.02,7.269,3.272,10.038,3.764c2.769,0.49,6.057,0.736,9.864,0.736c6.068,0,11.238-1.285,15.518-3.852
		c4.274-2.567,7.829-9.938,10.661-22.107c0.56-2.538,1.207-4.845,1.943-6.922h-0.346c-4.615,5.422-9.014,9.186-13.191,11.291
		c-4.184,2.107-9.158,3.157-14.922,3.157c-8.194,0-14.672-3.083-19.433-9.257C234.486,119.728,233.72,109.661,236.952,95.698z"/>
	<path d="M478.126,79.743l-92.574-67.087c-7.273-5.273-14.825-2.443-16.779,6.283l-31.809,142.019
		c-1.954,8.729,3.214,12.119,11.498,7.536L476.304,97.66C484.579,93.076,485.4,85.013,478.126,79.743z"/>
</g>
</svg>
